PathFileType	4	(X/Y/Z)	C:\Vicon\SynologyDrive\Alex P\Athlete_3\Athlete_3_22_07_06\static_01\marker_experimental.trc																																																																																																																																																																																																																									
DataRate	CameraRate	NumFrames	NumMarkers	Units	OrigDataRate	OrigDataStartFrame	OrigNumFrames																																																																																																																																																																																																																					
200	200	4	79	mm	200	86	693																																																																																																																																																																																																																					
Frame#	Time	GLAB			RFHD			LFHD			C7			T6			SPINMOL			SPINM2			SPINM3			T12			BELTOL			BELT2			BELT3			SACROL			SACR2			SACR3			LASI			RASI			LPSI			RPSI			LTHOL			LTH2			LTH3			LKNEL			LKNEM			LFIB			LSHAOL			LSHA2			LSHA3			LMALL			LMALM			LHEE			LTOE			LM5			RTHOL			RTH2			RTH3			RKNEL			RKNEM			RFIB			RSHAOL			RSHA2			RSHA3			RMALL			RMALM			RHEE			RTOE			RM5			STRN			XIPH			LACR			LUAOL			LUA2			LUA3			LCUBL			LCUBM			LLAOL			LLA2			LLA3			LWRR			LWRU			RACR			RUAOL			RUA2			RUA3			RCUBL			RCUBM			RLAOL			RLA2			RLA3			RWRR			RWRU			Bar:BL			Bar:BR		 	LKJCWK			RKJCWK			RAJCWK			LAJCWK			RHJCWK			LHJCWK
		X1	Y1	Z1	X2	Y2	Z2	X3	Y3	Z3	X4	Y4	Z4	X5	Y5	Z5	X6	Y6	Z6	X7	Y7	Z7	X8	Y8	Z8	X9	Y9	Z9	X10	Y10	Z10	X11	Y11	Z11	X12	Y12	Z12	X13	Y13	Z13	X14	Y14	Z14	X15	Y15	Z15	X16	Y16	Z16	X17	Y17	Z17	X18	Y18	Z18	X19	Y19	Z19	X20	Y20	Z20	X21	Y21	Z21	X22	Y22	Z22	X23	Y23	Z23	X24	Y24	Z24	X25	Y25	Z25	X26	Y26	Z26	X27	Y27	Z27	X28	Y28	Z28	X29	Y29	Z29	X30	Y30	Z30	X31	Y31	Z31	X32	Y32	Z32	X33	Y33	Z33	X34	Y34	Z34	X35	Y35	Z35	X36	Y36	Z36	X37	Y37	Z37	X38	Y38	Z38	X39	Y39	Z39	X40	Y40	Z40	X41	Y41	Z41	X42	Y42	Z42	X43	Y43	Z43	X44	Y44	Z44	X45	Y45	Z45	X46	Y46	Z46	X47	Y47	Z47	X48	Y48	Z48	X49	Y49	Z49	X50	Y50	Z50	X51	Y51	Z51	X52	Y52	Z52	X53	Y53	Z53	X54	Y54	Z54	X55	Y55	Z55	X56	Y56	Z56	X57	Y57	Z57	X58	Y58	Z58	X59	Y59	Z59	X60	Y60	Z60	X61	Y61	Z61	X62	Y62	Z62	X63	Y63	Z63	X64	Y64	Z64	X65	Y65	Z65	X66	Y66	Z66	X67	Y67	Z67	X68	Y68	Z68	X69	Y69	Z69	X70	Y70	Z70	X71	Y71	Z71	X72	Y72	Z72	X73	Y73	Z73	X74 	Y74 	Z74 	X75 	Y75 	Z75 	X76 	Y76 	Z76 	X77 	Y77 	Z77 	X78 	Y78 	Z78 	X79 	Y79 	Z79
																																																																																																																																																																																																																												
87	0.43	353.9454	1573.2845	-1215.5781	294.7657	1588.271	-1139.1768	290.5574	1588.7303	-1291.3549	128.7087	1449.2263	-1212.2623	74.1957	1244.0905	-1227.079	70.0661	1211.7928	-1231.3882	65.2026	1150.8146	-1179.5909	74.6101	1150.0066	-1228.4836	87.8319	1109.1963	-1227.3837	64.6398	1086.6868	-1226.707	66.009	1027.0863	-1173.6179	58.42	1024.9119	-1223.2195	69.4687	975.0651	-1248.6123	76.2695	984.7244	-1198.859	46.1329	926.4869	-1210.1432	285.5326	942.678	-1337.0734	289.4174	942.0795	-1109.3728	80.8686	991.2239	-1260.3862	81.4565	989.837	-1171.1805	200.0305	737.4276	-1444.4313	151.0306	676.6503	-1427.5773	199.5901	675.4585	-1440.9065	192.1163	498.0689	-1427.5938	215.3135	466.502	-1283.9032	152.1915	442.1713	-1428.7803	144.5642	325.7478	-1450.0785	101.4062	259.811	-1444.7318	150.7598	264.0495	-1450.2595	125.9971	85.2068	-1434.1997	169.2151	96.315	-1350.5437	78.4233	38.7619	-1374.8472	289.6236	47.3289	-1391.2552	238.5797	32.1403	-1492.1184	173.4136	708.3035	-1006.52	205.1693	636.1945	-993.0004	159.2952	647.6021	-1009.7098	160.0246	496.8179	-1013.9786	207.9586	461.7409	-1151.9762	116.191	442.2834	-1015.3236	91.0476	323.0424	-998.5062	130.7488	255.8594	-983.272	84.6748	261.9325	-1002.4112	89.985	86.6686	-1016.7883	152.9224	96.9673	-1084.3069	58.0164	38.0879	-1077.6443	261.576	43.2039	-1022.3075	202.3674	40.9991	-937.2405	278.1916	1366.7942	-1224.8589	315.638	1209.3293	-1226.8684	139.2844	1413.5322	-1400.6223	126.7291	1348.3243	-1514.1165	117.4251	1297.8124	-1556.438	151.4939	1333.2435	-1573.6045	162.6471	1295.7522	-1681.8912	185.6756	1209.6873	-1631.824	191.3707	1263.9396	-1767.7714	196.8635	1227.4034	-1822.1235	235.5193	1258.8593	-1815.968	304.8486	1187.413	-1861.5107	247.2711	1209.3345	-1903.8516	156.4742	1402.6393	-1041.6473	167.0001	1335.7805	-909.133	217.219	1327.2743	-866.2307	172.122	1316.0492	-845.7181	164.6475	1289.5139	-795.1893	220.1826	1195.7974	-808.8932	222.5303	1271.6552	-672.8044	273.2773	1260.1742	-633.2078	228.4892	1247.4462	-612.7885	311.0776	1179.901	-580.3052	245.0624	1212.3533	-543.6668	1512.1016	1285.4612	-2307.4185	1540.6448	1283.4103	-83.9543	203.7149	482.2855	-1355.7485	183.9916	479.2794	-1082.9774	119.7654	81.3578	-1049.6721	146.0905	80.1853	-1393.3609	229.8844	873.3969	-1139.9412	227.0708	873.8303	-1304.853
88	0.435	353.6992	1573.3282	-1215.7056	294.8276	1588.2715	-1139.1866	290.6021	1588.7251	-1291.3619	128.771	1449.228	-1212.246	74.2554	1244.0874	-1227.0494	70.1304	1211.7875	-1231.3641	65.274	1150.8057	-1179.5706	74.6754	1150.0007	-1228.4623	87.9105	1109.1866	-1227.3617	64.7091	1086.6786	-1226.6907	66.0866	1027.0751	-1173.6038	58.4936	1024.9042	-1223.1985	69.575	975.0873	-1248.5283	76.3089	984.7319	-1198.83	46.2105	926.4954	-1210.1288	285.5879	942.6777	-1337.0643	289.328	942.1969	-1109.3732	80.9367	991.2297	-1260.3732	81.5292	989.838	-1171.1672	200.0963	737.4307	-1444.4183	151.1806	676.6111	-1427.4414	199.6351	675.4564	-1440.9003	192.1516	498.0632	-1427.5895	215.353	466.4926	-1283.8931	152.2206	442.1749	-1428.7709	144.5242	325.8666	-1450.2148	101.4298	259.8157	-1444.7365	150.7772	264.0543	-1450.2568	126.0027	85.2129	-1434.2012	169.2197	96.3145	-1350.5408	78.4397	38.7629	-1374.8342	289.6245	47.3228	-1391.249	238.5791	32.1422	-1492.1266	173.4598	708.3053	-1006.5203	205.2133	636.1954	-993.0031	159.345	647.6124	-1009.7178	160.049	496.8234	-1013.9825	207.9811	461.7307	-1151.9786	116.2083	442.286	-1015.3395	91.056	323.0501	-998.5129	130.7657	255.8776	-983.2858	84.7051	261.8159	-1002.5357	89.9922	86.6704	-1016.7938	152.9304	96.9637	-1084.3119	58.0158	38.0966	-1077.6439	261.5823	43.2078	-1022.3028	202.3669	40.9991	-937.2365	278.2583	1366.7845	-1224.8478	315.6961	1209.3204	-1226.8638	139.3241	1413.5176	-1400.6045	126.7614	1348.3263	-1514.0891	117.4647	1297.8069	-1556.411	151.5236	1333.2437	-1573.594	162.6723	1295.7582	-1681.8779	185.7024	1209.6703	-1631.8208	191.3857	1263.959	-1767.7516	196.8891	1227.4186	-1822.1077	235.5336	1258.8773	-1815.9595	304.8796	1187.4294	-1861.5017	247.3062	1209.3634	-1903.8505	156.5418	1402.6263	-1041.6373	167.0762	1335.776	-909.1167	217.2572	1327.0958	-866.3271	172.1796	1316.0271	-845.709	164.7049	1289.5071	-795.1725	220.2272	1195.7937	-808.8752	222.6069	1271.6628	-672.7911	273.3355	1260.1711	-633.2123	228.5451	1247.4404	-612.7697	311.1345	1179.8994	-580.2813	245.1129	1212.3577	-543.6481	1512.088	1285.4465	-2307.3989	1540.639	1283.4136	-83.9536	203.7523	482.2779	-1355.7413	184.0151	479.277	-1082.9806	119.7726	81.357	-1049.6774	146.0948	80.1883	-1393.3604	229.8265	873.4882	-1139.9381	227.1175	873.8364	-1304.852
89	0.44	353.7518	1573.3129	-1215.7015	294.893	1588.2646	-1139.1812	290.659	1588.717	-1291.3593	128.9447	1449.168	-1212.1825	74.3293	1244.079	-1227.0273	70.3817	1211.7314	-1231.3472	65.3379	1150.8047	-1179.546	74.7248	1149.9985	-1228.4309	87.9937	1109.1865	-1227.3307	64.7881	1086.6736	-1226.665	66.1717	1027.0682	-1173.5831	58.5707	1024.8984	-1223.1794	69.6211	975.0224	-1248.543	76.3857	984.7351	-1198.8236	46.2808	926.4957	-1210.1061	285.6733	942.6877	-1337.0665	289.4123	942.2014	-1109.3677	81.0115	991.2276	-1260.354	81.6106	989.8403	-1171.1462	200.1449	737.4236	-1444.4004	151.1573	676.6747	-1427.5637	199.6899	675.4695	-1440.9087	192.1826	498.0625	-1427.59	215.3878	466.4881	-1283.8934	152.2485	442.1785	-1428.7631	144.5394	325.8734	-1450.2092	101.4473	259.8267	-1444.7362	150.7959	264.0598	-1450.2551	126.0116	85.2169	-1434.1958	169.2225	96.3089	-1350.5374	78.4042	38.773	-1374.8569	289.6258	47.3229	-1391.2517	238.5775	32.138	-1492.1234	173.5225	708.3071	-1006.5348	205.2479	636.194	-992.9971	159.3799	647.6158	-1009.7222	160.0684	496.8221	-1013.9916	207.9983	461.7245	-1151.9845	116.2249	442.2919	-1015.3487	91.0713	323.049	-998.5142	130.7806	255.8801	-983.2933	84.7096	261.8212	-1002.5356	89.9963	86.6778	-1016.7977	152.9379	96.9682	-1084.3134	58.0365	38.0922	-1077.6558	261.5836	43.2002	-1022.2992	202.3623	40.9985	-937.2415	278.3183	1366.7701	-1224.8354	315.7622	1209.3115	-1226.8582	139.3749	1413.4956	-1400.5857	126.8102	1348.3141	-1514.0808	117.5639	1297.8181	-1556.3943	151.5522	1333.2367	-1573.5763	162.7045	1295.761	-1681.866	185.7249	1209.6566	-1631.8035	191.4292	1263.9769	-1767.7539	196.9367	1227.4194	-1822.0886	235.5675	1258.8887	-1815.9467	304.9091	1187.45	-1861.5043	247.3264	1209.3864	-1903.8381	156.6152	1402.6256	-1041.6187	167.1179	1335.7573	-909.1159	217.3126	1327.094	-866.3059	172.2429	1316.0369	-845.693	164.7542	1289.4984	-795.1516	220.2824	1195.7861	-808.857	222.671	1271.6198	-672.7593	273.4486	1259.8795	-633.2862	228.6806	1247.3175	-612.7986	311.1869	1179.8966	-580.2564	245.1677	1212.3625	-543.6241	1512.0956	1285.4575	-2307.4082	1540.637	1283.4126	-83.9542	203.7852	482.2753	-1355.7417	184.0333	479.2733	-1082.988	119.778	81.3631	-1049.6799	146.0999	80.1876	-1393.3559	229.9135	873.4911	-1139.9384	227.2055	873.8433	-1304.852
90	0.445	353.8062	1573.3215	-1215.7045	294.9464	1588.266	-1139.1798	290.7075	1588.7106	-1291.3567	128.9205	1449.2057	-1212.2106	74.4045	1244.069	-1227.0041	70.4289	1211.7338	-1231.3289	65.4104	1150.7949	-1179.5223	74.7723	1149.9995	-1228.422	88.0759	1109.1909	-1227.3108	64.8689	1086.6681	-1226.6412	66.2435	1027.0571	-1173.5652	58.6482	1024.89	-1223.1572	69.7314	975.1138	-1248.493	76.4959	984.7348	-1198.8099	46.3624	926.5072	-1210.0802	285.7508	942.685	-1337.0695	289.5058	942.2007	-1109.3746	81.0913	991.2305	-1260.3375	81.6952	989.8444	-1171.1266	200.2016	737.4283	-1444.4	151.1927	676.681	-1427.543	199.7393	675.4719	-1440.9083	192.214	498.0599	-1427.5887	215.0045	466.3568	-1284.0604	152.2642	442.1786	-1428.7509	144.5667	325.8809	-1450.2019	101.4535	259.8394	-1444.729	150.8065	264.0613	-1450.2523	126.0151	85.2155	-1434.1899	169.2321	96.3154	-1350.5442	78.4396	38.7659	-1374.83	289.6232	47.3265	-1391.244	238.5789	32.1399	-1492.1207	173.572	708.3047	-1006.5358	205.3009	636.1918	-993.0063	159.4299	647.6186	-1009.7327	160.0975	496.8233	-1014.0001	208.0297	461.7209	-1151.9883	116.2509	442.2951	-1015.3573	91.0737	323.0323	-998.5427	130.7883	255.8749	-983.2921	84.7153	261.9458	-1002.4199	89.9984	86.6826	-1016.7974	152.9387	96.9666	-1084.318	58.0224	38.1009	-1077.6526	261.5846	43.2034	-1022.3031	202.3595	40.9996	-937.2402	278.3799	1366.7612	-1224.8243	315.8257	1209.308	-1226.8542	139.4151	1413.4775	-1400.568	126.8399	1348.3074	-1514.0717	117.5883	1297.8156	-1556.3783	151.5916	1333.2306	-1573.5531	162.7223	1295.7645	-1681.8497	185.7535	1209.6545	-1631.7834	191.3986	1263.9894	-1767.6442	196.9613	1227.4323	-1822.0691	235.5926	1258.9062	-1815.9323	304.932	1187.4722	-1861.4969	247.3522	1209.4189	-1903.8376	156.6791	1402.6223	-1041.6049	167.1934	1335.7585	-909.1035	217.3756	1327.0803	-866.2811	172.2905	1316.0178	-845.6741	164.8096	1289.4974	-795.136	220.3386	1195.7787	-808.8376	222.7034	1271.6499	-672.7561	273.4919	1260.0282	-633.2976	228.6479	1247.549	-612.6659	311.2431	1179.9001	-580.2308	245.2176	1212.3594	-543.6164	1512.0912	1285.4513	-2307.4072	1540.6442	1283.4156	-83.9475	203.6092	482.2083	-1355.8246	184.0636	479.2721	-1082.9942	119.7787	81.3648	-1049.682	146.111	80.1893	-1393.3544	230.0035	873.4913	-1139.9387	227.2839	873.842	-1304.852
